<?xml version="1.0" standalone="no"?>
<!DOCTYPE svg PUBLIC "-//W3C//DTD SVG 20010904//EN"
 "http://www.w3.org/TR/2001/REC-SVG-20010904/DTD/svg10.dtd">
<svg version="1.0" xmlns="http://www.w3.org/2000/svg"
 width="1080.000000pt" height="1080.000000pt" viewBox="0 0 1080.000000 1080.000000"
 preserveAspectRatio="xMidYMid meet">
<metadata>
Created by potrace 1.14, written by Peter Selinger 2001-2017
</metadata>
<g transform="translate(0.000000,1080.000000) scale(0.100000,-0.100000)"
fill="#000000" stroke="none">
<path d="M0 5400 l0 -5400 5400 0 5400 0 0 5400 0 5400 -5400 0 -5400 0 0
-5400z m10142 1363 c24 -21 86 -69 138 -108 52 -38 98 -74 102 -80 9 -12 11
-1519 2 -1528 -10 -10 -51 15 -177 110 l-118 89 -277 -33 c-152 -18 -421 -49
-597 -68 -361 -40 -498 -57 -504 -61 -2 -2 31 -49 74 -104 53 -69 74 -105 67
-112 -22 -22 -56 8 -134 114 -81 109 -81 109 -117 104 -20 -3 -85 -11 -146
-17 -60 -6 -153 -17 -205 -24 -52 -8 -270 -32 -485 -55 -214 -23 -398 -45
-408 -49 -16 -6 -7 -22 67 -118 51 -66 82 -114 75 -118 -28 -18 -60 10 -141
120 -56 78 -88 113 -98 109 -7 -3 -131 -18 -275 -34 -676 -76 -1016 -117
-1022 -124 -2 -1 35 -53 82 -115 63 -82 81 -113 71 -117 -32 -12 -54 6 -133
111 -46 62 -90 111 -101 113 -19 3 -476 -45 -692 -73 -63 -8 -198 -24 -300
-35 -228 -24 -350 -41 -350 -49 1 -3 41 -53 90 -111 50 -58 90 -108 90 -111 0
-11 -29 -19 -44 -13 -12 5 -81 84 -183 212 l-18 23 -202 -22 c-174 -19 -204
-20 -219 -8 -32 26 -44 75 -44 177 0 129 -11 312 -19 308 -3 -2 -98 -14 -211
-27 -113 -12 -208 -25 -213 -29 -4 -3 26 -25 66 -48 l74 -42 7 -313 c4 -172 4
-321 0 -330 -3 -9 -11 -17 -18 -17 -6 0 -63 53 -126 118 l-115 118 -153 -17
c-228 -25 -218 -11 -88 -138 61 -59 112 -112 114 -117 1 -5 -9 -10 -24 -12
-21 -3 -46 16 -147 116 l-122 119 -195 -23 c-107 -12 -413 -48 -679 -78 -266
-30 -485 -57 -487 -59 -2 -2 52 -52 121 -112 88 -78 121 -113 114 -121 -18
-22 -50 -1 -179 117 -120 110 -131 118 -157 109 -15 -4 -84 -13 -153 -20 -69
-6 -151 -16 -183 -21 -48 -8 -62 -7 -87 7 -16 10 -34 29 -39 43 -6 16 -11 292
-13 703 -2 372 -6 680 -10 683 -3 3 -131 -8 -284 -25 -154 -18 -297 -29 -318
-27 -75 10 -81 25 -84 215 -4 181 5 233 41 256 23 15 97 26 539 76 144 16 398
45 563 64 165 19 498 57 740 85 242 28 577 67 745 86 453 52 863 99 1350 155
239 28 572 66 740 85 168 20 460 53 650 75 190 21 389 44 443 51 93 11 167 7
167 -10 0 -4 49 -70 110 -147 l110 -139 0 -542 c0 -375 3 -543 11 -543 5 0
148 16 316 35 168 19 308 35 310 35 1 0 3 211 3 469 0 295 4 479 10 498 17 48
50 59 262 83 l198 23 47 -44 c27 -24 78 -68 116 -98 l67 -54 0 -393 c0 -216 3
-395 8 -397 5 -3 634 66 659 72 1 1 4 217 5 482 l3 481 28 23 c32 28 21 27
357 65 785 89 1056 121 1065 124 23 10 36 4 77 -31z m-1089 -2247 c14 -11 17
-29 17 -96 0 -91 -13 -120 -56 -120 -33 0 -44 28 -44 110 0 62 3 74 25 95 28
28 33 29 58 11z m-145 -123 c-4 -127 -22 -143 -26 -23 -2 62 -6 80 -17 80 -8
0 -15 4 -15 9 0 9 40 40 53 40 4 1 6 -47 5 -106z m-124 55 c18 -25 22 -122 6
-162 -18 -50 -82 -58 -96 -13 -13 40 -4 161 13 180 22 24 59 21 77 -5z m-204
-93 l0 -95 31 0 c47 0 30 -24 -19 -28 l-42 -3 0 104 c0 57 3 107 7 110 18 19
23 -1 23 -88z m-132 -23 l3 -92 29 0 c17 0 30 -4 30 -10 0 -12 -41 -23 -71
-18 -23 3 -24 7 -27 97 -4 100 1 125 21 119 8 -3 13 -34 15 -96z m-80 76 c-3
-7 -15 -15 -29 -18 -19 -5 -24 -12 -24 -35 0 -25 4 -30 23 -27 31 5 29 -24 -3
-32 -20 -5 -25 -13 -25 -36 0 -27 3 -30 30 -30 44 0 39 -26 -7 -33 -20 -4 -40
-4 -45 -1 -14 9 -10 212 5 217 26 11 79 7 75 -5z m-143 -108 c0 -71 -4 -105
-12 -107 -8 -3 -13 11 -15 39 -2 35 -7 43 -23 43 -17 0 -20 -8 -23 -47 -2 -34
-7 -48 -18 -48 -12 0 -14 18 -12 107 2 74 7 108 16 111 8 2 12 -10 12 -43 0
-42 2 -46 23 -43 17 2 21 9 19 28 -4 36 7 72 21 67 8 -2 12 -35 12 -107z
m-784 -70 c-1 -85 -6 -158 -9 -162 -4 -3 -28 -9 -54 -13 l-48 -7 0 56 c0 48 3
58 25 72 30 19 29 49 0 49 -32 0 -32 43 -1 55 16 6 26 17 26 30 0 30 -23 34
-61 11 -27 -16 -35 -29 -39 -58 -4 -30 -10 -39 -27 -41 -17 -2 -23 -10 -23
-27 0 -17 6 -25 23 -27 19 -3 22 -10 25 -61 4 -68 -3 -73 -113 -78 l-70 -4 -3
151 c-2 113 1 154 10 162 7 5 71 17 143 27 71 9 132 18 134 21 3 3 19 4 35 2
l30 -3 -3 -155z m617 148 c16 -16 16 -71 0 -66 -7 3 -14 15 -16 27 -2 12 -9
20 -15 18 -8 -2 -13 -34 -15 -86 -2 -63 0 -82 10 -79 7 3 15 15 18 28 8 34 30
37 30 4 0 -49 -52 -83 -78 -51 -6 7 -12 51 -13 97 -2 76 0 85 21 102 26 21 41
23 58 6z m-122 -27 c-4 -6 -14 -11 -22 -11 -11 0 -14 -19 -14 -95 0 -78 -3
-95 -15 -95 -12 0 -15 17 -15 89 0 80 -2 89 -20 94 -32 8 -23 26 18 32 20 4
42 8 47 10 15 4 28 -12 21 -24z m-163 -19 c12 -11 17 -30 17 -66 -1 -71 -21
-94 -85 -98 l-50 -3 -3 44 c-4 52 17 81 60 81 27 0 28 -2 28 -46 0 -51 16 -51
26 0 16 89 -77 114 -126 34 -24 -40 -27 -110 -4 -132 18 -18 66 -21 95 -6 15
8 19 7 19 -3 0 -22 -54 -40 -95 -33 -95 18 -80 191 20 237 42 19 68 17 98 -9z
m-984 -86 c8 -9 11 -45 9 -97 -3 -79 -5 -84 -30 -98 -24 -14 -28 -14 -47 3
-30 28 -31 152 -1 184 24 25 52 28 69 8z m-139 -112 c0 -80 -3 -105 -12 -102
-8 3 -14 30 -16 73 -2 38 -8 75 -13 81 -7 9 -5 19 8 32 10 11 21 21 26 21 4 1
7 -47 7 -105z m-121 68 c14 -26 -2 -48 -19 -27 -16 19 -29 19 -36 0 -4 -9 8
-31 30 -55 40 -45 43 -56 20 -88 -17 -24 -53 -29 -72 -10 -17 17 -15 48 3 48
8 0 15 -7 15 -16 0 -18 31 -16 37 3 3 7 -12 28 -31 48 -39 39 -46 74 -20 99
21 21 61 20 73 -2z m-141 -24 c13 -13 17 -156 4 -174 -15 -23 -51 -35 -72 -24
-17 9 -20 21 -20 92 0 62 4 86 17 100 18 21 53 24 71 6z m-138 -28 c15 -28 1
-49 -16 -25 -14 19 -44 14 -44 -7 0 -8 16 -28 35 -47 39 -36 43 -55 19 -89
-17 -24 -53 -29 -72 -10 -17 17 -15 48 3 48 8 0 15 -7 15 -15 0 -20 29 -19 37
1 4 11 -8 28 -36 54 -45 41 -49 54 -25 88 20 29 69 30 84 2z m-130 -82 c0 -71
-4 -95 -17 -110 -19 -21 -44 -23 -61 -6 -17 17 -17 201 1 196 8 -3 13 -33 15
-92 2 -63 6 -86 15 -83 8 2 13 32 15 83 3 87 6 104 22 104 6 0 10 -35 10 -92z
m-270 42 c0 -4 -13 -13 -30 -19 -23 -7 -30 -16 -30 -35 0 -21 5 -26 26 -26 31
0 28 -23 -4 -28 -17 -3 -22 -10 -22 -33 0 -26 3 -29 31 -29 47 0 30 -24 -19
-28 l-42 -3 0 100 0 101 28 6 c15 3 32 7 37 9 13 3 25 -4 25 -15z m80 -65 c0
-84 0 -85 25 -85 36 0 31 -26 -6 -34 -17 -3 -35 -3 -40 0 -5 3 -9 50 -9 105 0
81 3 99 15 99 12 0 15 -16 15 -85z m-214 39 c13 -19 14 -28 5 -37 -9 -9 -16
-7 -29 11 -14 18 -20 20 -30 10 -15 -15 -16 -134 -2 -143 15 -9 40 14 40 36 0
22 15 25 23 5 7 -17 -13 -56 -35 -69 -12 -8 -24 -7 -42 1 -25 11 -26 16 -26
89 0 65 3 80 22 100 28 30 53 29 74 -3z m-148 -6 c15 -19 14 -200 -1 -195 -7
2 -13 20 -15 40 -4 48 -32 52 -32 5 0 -35 -15 -67 -25 -56 -9 9 -15 182 -7
195 15 23 64 29 80 11z m-167 -20 c0 -7 8 -50 18 -96 18 -82 12 -114 -14 -79
-18 25 -44 20 -56 -10 -21 -55 -27 -7 -11 82 18 98 26 115 48 115 8 0 14 -6
15 -12z m-694 -23 c16 -11 28 -13 47 -5 30 11 33 4 9 -23 -17 -19 -17 -19 7
-12 l25 7 -21 -23 c-12 -13 -24 -44 -27 -68 -13 -105 -97 -207 -190 -232 -50
-13 -160 -7 -202 11 l-30 13 46 8 c26 4 57 13 70 19 23 13 23 13 -13 31 -38
19 -58 49 -33 49 8 0 15 5 15 10 0 6 -6 10 -13 10 -18 0 -43 28 -52 58 -6 21
-4 23 14 17 12 -4 21 -2 21 4 0 6 -4 11 -9 11 -15 0 -34 59 -27 85 l7 26 31
-26 c41 -34 94 -61 141 -69 l37 -7 0 36 c0 69 88 111 147 70z m381 -22 c16
-22 15 -103 -3 -126 -14 -20 -89 -42 -106 -32 -13 9 -11 79 4 97 16 20 55 29
64 15 4 -7 6 -26 4 -44 -3 -34 12 -45 23 -17 11 29 6 72 -10 88 -23 24 -52 19
-85 -13 -24 -25 -29 -38 -29 -79 0 -66 24 -90 75 -75 37 12 58 0 28 -15 -49
-25 -73 -23 -103 7 -34 34 -40 88 -16 146 28 66 119 95 154 48z m192 -73 c0
-82 -3 -100 -15 -100 -9 0 -15 10 -16 28 -1 27 -1 27 -11 -5 -14 -43 -24 -41
-45 5 l-17 37 -4 -42 c-2 -24 -7 -43 -13 -43 -5 0 -9 46 -9 105 0 87 3 105 15
105 17 0 35 -38 35 -75 0 -13 4 -27 10 -30 9 -6 14 7 25 78 4 28 11 37 25 37
19 0 20 -7 20 -100z m-1212 18 c7 -7 12 -44 12 -95 0 -76 -2 -84 -24 -98 -19
-13 -29 -14 -45 -5 -19 9 -21 20 -21 92 0 62 4 86 17 100 19 21 44 23 61 6z
m-140 -110 c-3 -118 -21 -140 -26 -33 -2 38 -8 75 -14 82 -8 10 -6 18 7 33 10
11 22 20 27 20 5 0 7 -46 6 -102z m-127 82 c10 -6 19 -20 19 -30 0 -21 -15
-27 -25 -10 -3 6 -13 10 -21 10 -24 0 -16 -35 16 -65 34 -32 39 -69 13 -97
-28 -31 -73 -17 -73 24 0 22 16 23 28 2 5 -9 14 -14 21 -10 21 13 11 44 -24
70 -42 33 -48 76 -13 100 26 19 33 19 59 6z m-139 -27 c27 -25 26 -155 -2
-183 -24 -24 -38 -25 -62 -3 -27 25 -26 155 2 183 24 24 38 25 62 3z m-124
-50 c3 -23 -12 -31 -23 -13 -3 6 -13 10 -21 10 -24 0 -16 -35 16 -65 19 -18
30 -39 30 -56 0 -47 -48 -77 -78 -47 -17 17 -15 48 3 48 8 0 15 -7 15 -15 0
-8 7 -15 15 -15 26 0 17 44 -15 72 -52 45 -36 112 25 106 22 -2 31 -9 33 -25z
m-130 -74 c-3 -87 -5 -93 -30 -112 -27 -20 -28 -20 -48 -2 -17 16 -20 30 -20
107 0 72 3 88 15 88 12 0 15 -16 15 -83 0 -88 3 -99 26 -90 11 4 14 27 14 94
0 73 3 89 15 89 13 0 15 -15 13 -91z m-270 43 c2 -7 -10 -15 -28 -18 -26 -6
-31 -11 -28 -33 2 -18 10 -27 26 -29 30 -4 28 -18 -4 -26 -20 -5 -25 -12 -22
-34 2 -21 9 -28 31 -30 51 -6 24 -32 -34 -32 l-30 0 3 102 3 103 30 6 c37 8
48 6 53 -9z m80 -70 c3 -80 4 -82 27 -82 16 0 25 -6 25 -15 0 -9 -9 -15 -24
-15 -13 0 -31 -3 -40 -6 -14 -5 -16 7 -16 101 0 81 3 106 13 103 8 -3 13 -32
15 -86z m-224 52 c20 -19 21 -54 2 -54 -7 0 -16 9 -19 21 -3 12 -12 19 -19 17
-14 -5 -28 -132 -17 -150 11 -17 37 -2 41 23 4 33 28 36 28 5 0 -31 -32 -66
-59 -66 -33 0 -51 38 -51 108 0 53 4 67 25 87 28 29 47 31 69 9z m-134 -19 c8
-9 10 -27 6 -47 -7 -39 -7 -40 0 -95 5 -35 3 -43 -10 -43 -11 0 -16 9 -16 29
0 29 -21 57 -33 44 -4 -3 -7 -24 -7 -45 0 -27 -4 -38 -15 -38 -12 0 -15 18
-15 99 0 70 4 101 13 104 25 11 65 6 77 -8z m-793 -27 c22 -21 23 -28 23 -170
0 -147 0 -148 -27 -178 -26 -29 -37 -32 -166 -52 -139 -20 -139 -20 -165 -1
-27 20 -27 21 -30 172 -3 204 -1 208 173 235 134 21 165 20 192 -6z m639 -38
c25 -109 27 -140 10 -140 -9 0 -16 7 -16 15 0 9 -9 15 -25 15 -15 0 -25 -6
-25 -14 0 -16 -18 -31 -26 -23 -6 6 23 184 32 199 15 24 38 0 50 -52z m-326
10 c24 -24 26 -79 5 -119 -17 -33 -26 -38 -80 -37 -38 1 -40 3 -43 34 -5 47
21 82 59 82 29 0 31 -2 27 -37 -1 -21 2 -39 7 -40 6 -2 10 20 10 50 0 51 0 52
-32 55 -43 4 -72 -13 -89 -53 -34 -83 -6 -132 71 -122 50 7 59 -3 20 -21 -38
-17 -69 -15 -98 8 -31 25 -40 58 -28 111 20 89 119 141 171 89z m190 -80 c0
-82 -3 -100 -15 -100 -11 0 -15 12 -16 43 l-1 42 -7 -35 c-14 -71 -37 -81 -47
-20 -9 54 -24 51 -24 -5 0 -25 -4 -45 -9 -45 -11 0 -19 187 -10 202 14 22 37
-2 43 -46 10 -66 23 -65 37 4 9 48 15 60 30 60 17 0 19 -9 19 -100z"/>
<path d="M9485 6195 c-257 -31 -311 -38 -322 -44 -8 -4 33 -27 95 -53 l107
-47 3 -175 2 -176 43 1 c23 0 80 6 127 12 l85 12 3 170 c2 113 -1 177 -9 191
-6 12 -9 45 -8 73 3 30 0 51 -6 50 -5 -1 -59 -7 -120 -14z"/>
<path d="M3865 6005 c-55 -7 -149 -19 -209 -26 l-110 -13 104 -97 104 -97 -3
-95 c-1 -56 2 -97 8 -101 10 -7 239 19 248 27 2 3 1 98 -3 211 -6 180 -9 206
-23 205 -9 -1 -61 -7 -116 -14z"/>
<path d="M5740 5794 c-101 -14 -374 -44 -632 -71 -116 -12 -158 -20 -158 -30
0 -15 10 -16 44 -3 14 5 132 21 263 35 131 14 293 32 361 40 75 10 147 13 188
9 61 -6 66 -6 62 12 -4 24 -12 24 -128 8z"/>
<path d="M2895 5448 c-38 -6 -239 -29 -445 -52 l-375 -43 113 -56 112 -57 0
-158 c0 -86 4 -163 9 -171 8 -12 52 -10 303 18 161 18 312 35 336 38 l42 6 0
137 c0 160 -10 351 -19 349 -3 -1 -37 -6 -76 -11z"/>
<path d="M5655 5295 c-49 -7 -231 -28 -402 -46 -247 -27 -313 -37 -313 -48 0
-15 -7 -15 209 14 62 8 197 24 300 34 275 29 371 43 365 52 -7 11 -46 10 -159
-6z"/>
<path d="M9005 4467 c-4 -13 -5 -48 -3 -77 2 -43 7 -56 21 -58 15 -3 17 6 17
77 0 65 -3 81 -15 81 -8 0 -17 -10 -20 -23z"/>
<path d="M8727 4433 c-4 -3 -7 -39 -7 -80 0 -66 2 -73 20 -73 18 0 20 7 20 80
0 60 -3 80 -13 80 -8 0 -17 -3 -20 -7z"/>
<path d="M7685 4248 c-11 -33 -9 -53 5 -53 10 0 16 12 18 33 3 31 -14 46 -23
20z"/>
<path d="M6742 4218 c-15 -15 -16 -134 -2 -143 23 -14 40 17 40 70 0 78 -11
100 -38 73z"/>
<path d="M6337 4154 c-10 -10 -9 -142 1 -148 22 -14 33 14 30 79 -3 63 -13 86
-31 69z"/>
<path d="M5526 4049 c-12 -34 -10 -54 4 -54 8 0 17 11 18 24 4 27 -15 53 -22
30z"/>
<path d="M5370 3983 c0 -12 -3 -28 -6 -37 -4 -11 -1 -16 10 -16 18 0 22 36 6
60 -8 12 -10 11 -10 -7z"/>
<path d="M5000 3908 c1 -31 1 -32 15 -14 19 25 19 46 0 46 -10 0 -15 -10 -15
-32z"/>
<path d="M4024 3926 c-9 -23 0 -141 11 -141 6 0 11 34 13 78 2 50 -1 77 -8 77
-6 0 -13 -6 -16 -14z"/>
<path d="M3614 3877 c-3 -8 -4 -43 -2 -78 2 -49 7 -64 18 -64 12 0 15 15 15
74 0 51 -4 76 -12 78 -7 3 -15 -2 -19 -10z"/>
<path d="M2800 3741 c0 -35 13 -47 30 -26 16 19 9 49 -13 53 -13 3 -17 -3 -17
-27z"/>
<path d="M1891 3735 c-169 -27 -161 -17 -161 -201 0 -180 -8 -173 168 -146
167 26 162 19 162 197 0 96 -4 145 -12 153 -14 14 -47 14 -157 -3z m129 -45
c0 -11 -6 -20 -13 -20 -19 0 -27 10 -20 26 8 21 33 17 33 -6z m-51 -54 c60
-60 -2 -181 -92 -178 -38 1 -87 49 -87 85 0 37 34 89 71 109 40 22 74 17 108
-16z"/>
<path d="M1873 3625 c-71 -30 -65 -127 8 -133 30 -3 41 2 63 28 30 36 32 56
11 87 -19 27 -46 33 -82 18z"/>
<path d="M2667 3696 c-12 -30 -8 -56 8 -56 16 0 18 23 6 54 -7 18 -8 18 -14 2z"/>
<path d="M2284 3636 c-3 -14 -3 -30 1 -36 11 -17 35 8 35 36 0 32 -28 31 -36
0z"/>
</g>
</svg>
